# xmcd
#
# Track frame offsets:
#	150
#	14667
#	32485
#	52602
#	71407
#	85677
#
# Disc length: 1338 seconds
#
# Revision: 1
# Processed by: cddbd v1.5.2PL0 Copyright (c) Steve Scherf et al.
# Submitted via: audiograbber 1.83.01
#
DISCID=3b053806
DTITLE=Cuisin' Deuces - Introducing the Cruisin' Deuces
DYEAR=2016
DGENRE=Country
TTITLE0=No Getting Away
TTITLE1=Falling Deeper
TTITLE2=Put The Flame Out
TTITLE3=Splitsville
TTITLE4=Where My Heart Used To Be
TTITLE5=Hepcat Daddy
EXTD=All songs written by Zane and Jy-Perrry Banks.
EXTT0=
EXTT1=
EXTT2=
EXTT3=
EXTT4=
EXTT5=
PLAYORDER=
